<mxfile host="app.diagrams.net" modified="2022-11-24T10:03:32.173Z" agent="5.0 (Windows NT 10.0; Win64; x64) AppleWebKit/537.36 (KHTML, like Gecko) Chrome/107.0.0.0 Safari/537.36" version="20.6.0" etag="SuPoRpUpSFI2u4HvLzfS" type="github">
  <diagram id="p-s0YgaWZhXXMR0eOVGg" name="หน้า-1">
    <mxGraphModel dx="1447" dy="790" grid="1" gridSize="10" guides="1" tooltips="1" connect="1" arrows="1" fold="1" page="1" pageScale="1" pageWidth="827" pageHeight="1169" math="0" shadow="0">
      <root>
        <mxCell id="0" />
        <mxCell id="1" parent="0" />
        <mxCell id="9TROFiktMzXGWwMeYh6z-3" value="" style="edgeStyle=orthogonalEdgeStyle;rounded=0;orthogonalLoop=1;jettySize=auto;html=1;" edge="1" parent="1" source="9TROFiktMzXGWwMeYh6z-1" target="9TROFiktMzXGWwMeYh6z-2">
          <mxGeometry relative="1" as="geometry" />
        </mxCell>
        <mxCell id="9TROFiktMzXGWwMeYh6z-1" value="เริ่มต้น" style="rounded=1;whiteSpace=wrap;html=1;fillColor=#ffe6cc;strokeColor=#d79b00;" vertex="1" parent="1">
          <mxGeometry x="60" y="50" width="120" height="60" as="geometry" />
        </mxCell>
        <mxCell id="9TROFiktMzXGWwMeYh6z-5" value="" style="edgeStyle=orthogonalEdgeStyle;rounded=0;orthogonalLoop=1;jettySize=auto;html=1;" edge="1" parent="1" source="9TROFiktMzXGWwMeYh6z-2" target="9TROFiktMzXGWwMeYh6z-4">
          <mxGeometry relative="1" as="geometry" />
        </mxCell>
        <mxCell id="9TROFiktMzXGWwMeYh6z-2" value="ตื่นนอน" style="whiteSpace=wrap;html=1;rounded=1;fillColor=#f5f5f5;fontColor=#333333;strokeColor=#666666;" vertex="1" parent="1">
          <mxGeometry x="60" y="190" width="120" height="60" as="geometry" />
        </mxCell>
        <mxCell id="9TROFiktMzXGWwMeYh6z-7" value="" style="edgeStyle=orthogonalEdgeStyle;rounded=0;orthogonalLoop=1;jettySize=auto;html=1;" edge="1" parent="1" source="9TROFiktMzXGWwMeYh6z-4" target="9TROFiktMzXGWwMeYh6z-6">
          <mxGeometry relative="1" as="geometry" />
        </mxCell>
        <mxCell id="9TROFiktMzXGWwMeYh6z-4" value="ลุกจากที่นอน" style="whiteSpace=wrap;html=1;rounded=1;fillColor=#dae8fc;strokeColor=#6c8ebf;" vertex="1" parent="1">
          <mxGeometry x="260" y="190" width="120" height="60" as="geometry" />
        </mxCell>
        <mxCell id="9TROFiktMzXGWwMeYh6z-9" value="" style="edgeStyle=orthogonalEdgeStyle;rounded=0;orthogonalLoop=1;jettySize=auto;html=1;" edge="1" parent="1" source="9TROFiktMzXGWwMeYh6z-6" target="9TROFiktMzXGWwMeYh6z-8">
          <mxGeometry relative="1" as="geometry" />
        </mxCell>
        <mxCell id="9TROFiktMzXGWwMeYh6z-6" value="พับผ้าห่ม จัดเตียงนอน" style="whiteSpace=wrap;html=1;rounded=1;fillColor=#d5e8d4;strokeColor=#82b366;" vertex="1" parent="1">
          <mxGeometry x="460" y="190" width="120" height="60" as="geometry" />
        </mxCell>
        <mxCell id="9TROFiktMzXGWwMeYh6z-11" value="" style="edgeStyle=orthogonalEdgeStyle;rounded=0;orthogonalLoop=1;jettySize=auto;html=1;" edge="1" parent="1" source="9TROFiktMzXGWwMeYh6z-8" target="9TROFiktMzXGWwMeYh6z-10">
          <mxGeometry relative="1" as="geometry" />
        </mxCell>
        <mxCell id="9TROFiktMzXGWwMeYh6z-8" value="จับโทรศัพท์เปิดเพลง" style="whiteSpace=wrap;html=1;rounded=1;fillColor=#fff2cc;strokeColor=#d6b656;" vertex="1" parent="1">
          <mxGeometry x="660" y="190" width="120" height="60" as="geometry" />
        </mxCell>
        <mxCell id="9TROFiktMzXGWwMeYh6z-13" value="" style="edgeStyle=orthogonalEdgeStyle;rounded=0;orthogonalLoop=1;jettySize=auto;html=1;" edge="1" parent="1" source="9TROFiktMzXGWwMeYh6z-10" target="9TROFiktMzXGWwMeYh6z-12">
          <mxGeometry relative="1" as="geometry" />
        </mxCell>
        <mxCell id="9TROFiktMzXGWwMeYh6z-10" value="เข้าห้องน้ำ" style="whiteSpace=wrap;html=1;rounded=1;fillColor=#f8cecc;strokeColor=#b85450;" vertex="1" parent="1">
          <mxGeometry x="660" y="330" width="120" height="60" as="geometry" />
        </mxCell>
        <mxCell id="9TROFiktMzXGWwMeYh6z-15" value="" style="edgeStyle=orthogonalEdgeStyle;rounded=0;orthogonalLoop=1;jettySize=auto;html=1;" edge="1" parent="1" source="9TROFiktMzXGWwMeYh6z-12" target="9TROFiktMzXGWwMeYh6z-14">
          <mxGeometry relative="1" as="geometry" />
        </mxCell>
        <mxCell id="9TROFiktMzXGWwMeYh6z-12" value="อาบน้ำ" style="whiteSpace=wrap;html=1;rounded=1;fillColor=#e1d5e7;strokeColor=#9673a6;" vertex="1" parent="1">
          <mxGeometry x="460" y="330" width="120" height="60" as="geometry" />
        </mxCell>
        <mxCell id="9TROFiktMzXGWwMeYh6z-17" value="" style="edgeStyle=orthogonalEdgeStyle;rounded=0;orthogonalLoop=1;jettySize=auto;html=1;" edge="1" parent="1" source="9TROFiktMzXGWwMeYh6z-14" target="9TROFiktMzXGWwMeYh6z-16">
          <mxGeometry relative="1" as="geometry" />
        </mxCell>
        <mxCell id="9TROFiktMzXGWwMeYh6z-14" value="แปรงฟัน" style="whiteSpace=wrap;html=1;rounded=1;fillColor=#f5f5f5;fontColor=#333333;strokeColor=#666666;" vertex="1" parent="1">
          <mxGeometry x="260" y="330" width="120" height="60" as="geometry" />
        </mxCell>
        <mxCell id="9TROFiktMzXGWwMeYh6z-19" value="" style="edgeStyle=orthogonalEdgeStyle;rounded=0;orthogonalLoop=1;jettySize=auto;html=1;" edge="1" parent="1" source="9TROFiktMzXGWwMeYh6z-16" target="9TROFiktMzXGWwMeYh6z-18">
          <mxGeometry relative="1" as="geometry" />
        </mxCell>
        <mxCell id="9TROFiktMzXGWwMeYh6z-16" value="เช็ดตัว" style="whiteSpace=wrap;html=1;rounded=1;fillColor=#dae8fc;strokeColor=#6c8ebf;" vertex="1" parent="1">
          <mxGeometry x="60" y="330" width="120" height="60" as="geometry" />
        </mxCell>
        <mxCell id="9TROFiktMzXGWwMeYh6z-21" value="" style="edgeStyle=orthogonalEdgeStyle;rounded=0;orthogonalLoop=1;jettySize=auto;html=1;" edge="1" parent="1" source="9TROFiktMzXGWwMeYh6z-18" target="9TROFiktMzXGWwMeYh6z-20">
          <mxGeometry relative="1" as="geometry" />
        </mxCell>
        <mxCell id="9TROFiktMzXGWwMeYh6z-18" value="แต่งตัว" style="whiteSpace=wrap;html=1;rounded=1;fillColor=#d5e8d4;strokeColor=#82b366;" vertex="1" parent="1">
          <mxGeometry x="60" y="470" width="120" height="60" as="geometry" />
        </mxCell>
        <mxCell id="9TROFiktMzXGWwMeYh6z-23" value="" style="edgeStyle=orthogonalEdgeStyle;rounded=0;orthogonalLoop=1;jettySize=auto;html=1;" edge="1" parent="1" source="9TROFiktMzXGWwMeYh6z-20" target="9TROFiktMzXGWwMeYh6z-22">
          <mxGeometry relative="1" as="geometry" />
        </mxCell>
        <mxCell id="9TROFiktMzXGWwMeYh6z-20" value="ทาสกินแคร์" style="whiteSpace=wrap;html=1;rounded=1;fillColor=#fff2cc;strokeColor=#d6b656;" vertex="1" parent="1">
          <mxGeometry x="260" y="470" width="120" height="60" as="geometry" />
        </mxCell>
        <mxCell id="9TROFiktMzXGWwMeYh6z-25" value="" style="edgeStyle=orthogonalEdgeStyle;rounded=0;orthogonalLoop=1;jettySize=auto;html=1;" edge="1" parent="1" source="9TROFiktMzXGWwMeYh6z-22" target="9TROFiktMzXGWwMeYh6z-24">
          <mxGeometry relative="1" as="geometry" />
        </mxCell>
        <mxCell id="9TROFiktMzXGWwMeYh6z-22" value="หวีผม มัดผม" style="whiteSpace=wrap;html=1;rounded=1;fillColor=#f8cecc;strokeColor=#b85450;" vertex="1" parent="1">
          <mxGeometry x="460" y="470" width="120" height="60" as="geometry" />
        </mxCell>
        <mxCell id="9TROFiktMzXGWwMeYh6z-27" value="" style="edgeStyle=orthogonalEdgeStyle;rounded=0;orthogonalLoop=1;jettySize=auto;html=1;" edge="1" parent="1" source="9TROFiktMzXGWwMeYh6z-24" target="9TROFiktMzXGWwMeYh6z-26">
          <mxGeometry relative="1" as="geometry" />
        </mxCell>
        <mxCell id="9TROFiktMzXGWwMeYh6z-24" value="จัดกระเป๋า จัดตารางเรียน" style="whiteSpace=wrap;html=1;rounded=1;fillColor=#e1d5e7;strokeColor=#9673a6;" vertex="1" parent="1">
          <mxGeometry x="660" y="470" width="120" height="60" as="geometry" />
        </mxCell>
        <mxCell id="9TROFiktMzXGWwMeYh6z-29" value="" style="edgeStyle=orthogonalEdgeStyle;rounded=0;orthogonalLoop=1;jettySize=auto;html=1;" edge="1" parent="1" source="9TROFiktMzXGWwMeYh6z-26" target="9TROFiktMzXGWwMeYh6z-28">
          <mxGeometry relative="1" as="geometry" />
        </mxCell>
        <mxCell id="9TROFiktMzXGWwMeYh6z-26" value="กินข้าว" style="whiteSpace=wrap;html=1;rounded=1;fillColor=#f5f5f5;fontColor=#333333;strokeColor=#666666;" vertex="1" parent="1">
          <mxGeometry x="660" y="610" width="120" height="60" as="geometry" />
        </mxCell>
        <mxCell id="9TROFiktMzXGWwMeYh6z-31" value="" style="edgeStyle=orthogonalEdgeStyle;rounded=0;orthogonalLoop=1;jettySize=auto;html=1;" edge="1" parent="1" source="9TROFiktMzXGWwMeYh6z-28" target="9TROFiktMzXGWwMeYh6z-30">
          <mxGeometry relative="1" as="geometry" />
        </mxCell>
        <mxCell id="9TROFiktMzXGWwMeYh6z-28" value="ดื่มน้ำ" style="whiteSpace=wrap;html=1;rounded=1;fillColor=#dae8fc;strokeColor=#6c8ebf;" vertex="1" parent="1">
          <mxGeometry x="460" y="610" width="120" height="60" as="geometry" />
        </mxCell>
        <mxCell id="9TROFiktMzXGWwMeYh6z-33" value="" style="edgeStyle=orthogonalEdgeStyle;rounded=0;orthogonalLoop=1;jettySize=auto;html=1;" edge="1" parent="1" source="9TROFiktMzXGWwMeYh6z-30" target="9TROFiktMzXGWwMeYh6z-32">
          <mxGeometry relative="1" as="geometry" />
        </mxCell>
        <mxCell id="9TROFiktMzXGWwMeYh6z-30" value="กินขนม" style="whiteSpace=wrap;html=1;rounded=1;fillColor=#d5e8d4;strokeColor=#82b366;" vertex="1" parent="1">
          <mxGeometry x="260" y="610" width="120" height="60" as="geometry" />
        </mxCell>
        <mxCell id="9TROFiktMzXGWwMeYh6z-35" value="" style="edgeStyle=orthogonalEdgeStyle;rounded=0;orthogonalLoop=1;jettySize=auto;html=1;" edge="1" parent="1" source="9TROFiktMzXGWwMeYh6z-32" target="9TROFiktMzXGWwMeYh6z-34">
          <mxGeometry relative="1" as="geometry" />
        </mxCell>
        <mxCell id="9TROFiktMzXGWwMeYh6z-32" value="ดื่มนมบ้างบางครั้ง" style="whiteSpace=wrap;html=1;rounded=1;fillColor=#fff2cc;strokeColor=#d6b656;" vertex="1" parent="1">
          <mxGeometry x="60" y="610" width="120" height="60" as="geometry" />
        </mxCell>
        <mxCell id="9TROFiktMzXGWwMeYh6z-37" value="" style="edgeStyle=orthogonalEdgeStyle;rounded=0;orthogonalLoop=1;jettySize=auto;html=1;" edge="1" parent="1" source="9TROFiktMzXGWwMeYh6z-34" target="9TROFiktMzXGWwMeYh6z-36">
          <mxGeometry relative="1" as="geometry" />
        </mxCell>
        <mxCell id="9TROFiktMzXGWwMeYh6z-34" value="เตรียมพร้อมไปโรงเรียน" style="whiteSpace=wrap;html=1;rounded=1;fillColor=#f8cecc;strokeColor=#b85450;" vertex="1" parent="1">
          <mxGeometry x="60" y="750" width="120" height="60" as="geometry" />
        </mxCell>
        <mxCell id="9TROFiktMzXGWwMeYh6z-39" value="" style="edgeStyle=orthogonalEdgeStyle;rounded=0;orthogonalLoop=1;jettySize=auto;html=1;" edge="1" parent="1" source="9TROFiktMzXGWwMeYh6z-36" target="9TROFiktMzXGWwMeYh6z-38">
          <mxGeometry relative="1" as="geometry" />
        </mxCell>
        <mxCell id="9TROFiktMzXGWwMeYh6z-36" value="ใส่รองเท้า" style="whiteSpace=wrap;html=1;rounded=1;fillColor=#e1d5e7;strokeColor=#9673a6;" vertex="1" parent="1">
          <mxGeometry x="260" y="750" width="120" height="60" as="geometry" />
        </mxCell>
        <mxCell id="9TROFiktMzXGWwMeYh6z-41" value="" style="edgeStyle=orthogonalEdgeStyle;rounded=0;orthogonalLoop=1;jettySize=auto;html=1;" edge="1" parent="1" source="9TROFiktMzXGWwMeYh6z-38" target="9TROFiktMzXGWwMeYh6z-40">
          <mxGeometry relative="1" as="geometry" />
        </mxCell>
        <mxCell id="9TROFiktMzXGWwMeYh6z-38" value="ขับรถมอเตอร์ไซค์ออกจากบ้าน" style="whiteSpace=wrap;html=1;rounded=1;fillColor=#f5f5f5;fontColor=#333333;strokeColor=#666666;" vertex="1" parent="1">
          <mxGeometry x="460" y="750" width="120" height="60" as="geometry" />
        </mxCell>
        <mxCell id="9TROFiktMzXGWwMeYh6z-43" value="" style="edgeStyle=orthogonalEdgeStyle;rounded=0;orthogonalLoop=1;jettySize=auto;html=1;" edge="1" parent="1" source="9TROFiktMzXGWwMeYh6z-40" target="9TROFiktMzXGWwMeYh6z-42">
          <mxGeometry relative="1" as="geometry" />
        </mxCell>
        <mxCell id="9TROFiktMzXGWwMeYh6z-40" value="ระหว่างทางจะมีน้ำตก สถานที่ต่างๆ อย่างเช่น ป้อมตำรวจ ร้านค้า สวนสาธารณะ" style="whiteSpace=wrap;html=1;rounded=1;fillColor=#dae8fc;strokeColor=#6c8ebf;" vertex="1" parent="1">
          <mxGeometry x="660" y="750" width="120" height="60" as="geometry" />
        </mxCell>
        <mxCell id="9TROFiktMzXGWwMeYh6z-45" value="" style="edgeStyle=orthogonalEdgeStyle;rounded=0;orthogonalLoop=1;jettySize=auto;html=1;" edge="1" parent="1" source="9TROFiktMzXGWwMeYh6z-42" target="9TROFiktMzXGWwMeYh6z-44">
          <mxGeometry relative="1" as="geometry" />
        </mxCell>
        <mxCell id="9TROFiktMzXGWwMeYh6z-42" value="ถึงหน้าโรงเรียน" style="whiteSpace=wrap;html=1;rounded=1;fillColor=#d5e8d4;strokeColor=#82b366;" vertex="1" parent="1">
          <mxGeometry x="660" y="890" width="120" height="60" as="geometry" />
        </mxCell>
        <mxCell id="9TROFiktMzXGWwMeYh6z-55" value="" style="edgeStyle=orthogonalEdgeStyle;rounded=0;orthogonalLoop=1;jettySize=auto;html=1;" edge="1" parent="1" source="9TROFiktMzXGWwMeYh6z-44" target="9TROFiktMzXGWwMeYh6z-54">
          <mxGeometry relative="1" as="geometry" />
        </mxCell>
        <mxCell id="9TROFiktMzXGWwMeYh6z-44" value="มีครูคอยยืนต้อนรับ" style="whiteSpace=wrap;html=1;rounded=1;fillColor=#fff2cc;strokeColor=#d6b656;" vertex="1" parent="1">
          <mxGeometry x="460" y="890" width="120" height="60" as="geometry" />
        </mxCell>
        <mxCell id="9TROFiktMzXGWwMeYh6z-57" value="" style="edgeStyle=orthogonalEdgeStyle;rounded=0;orthogonalLoop=1;jettySize=auto;html=1;" edge="1" parent="1" source="9TROFiktMzXGWwMeYh6z-54" target="9TROFiktMzXGWwMeYh6z-56">
          <mxGeometry relative="1" as="geometry" />
        </mxCell>
        <mxCell id="9TROFiktMzXGWwMeYh6z-54" value="ลงจากรถมอเตอร์ไซค์เพื่อไปไหว้ครู" style="whiteSpace=wrap;html=1;rounded=1;fillColor=#f8cecc;strokeColor=#b85450;" vertex="1" parent="1">
          <mxGeometry x="260" y="890" width="120" height="60" as="geometry" />
        </mxCell>
        <mxCell id="9TROFiktMzXGWwMeYh6z-59" value="" style="edgeStyle=orthogonalEdgeStyle;rounded=0;orthogonalLoop=1;jettySize=auto;html=1;" edge="1" parent="1" source="9TROFiktMzXGWwMeYh6z-56" target="9TROFiktMzXGWwMeYh6z-58">
          <mxGeometry relative="1" as="geometry" />
        </mxCell>
        <mxCell id="9TROFiktMzXGWwMeYh6z-56" value="จากนั้นก็ขับรถมอเตอร์ไซค์เพื่อไปจอดที่จอดรถ" style="whiteSpace=wrap;html=1;rounded=1;fillColor=#e1d5e7;strokeColor=#9673a6;" vertex="1" parent="1">
          <mxGeometry x="60" y="890" width="120" height="60" as="geometry" />
        </mxCell>
        <mxCell id="9TROFiktMzXGWwMeYh6z-61" value="" style="edgeStyle=orthogonalEdgeStyle;rounded=0;orthogonalLoop=1;jettySize=auto;html=1;" edge="1" parent="1" source="9TROFiktMzXGWwMeYh6z-58" target="9TROFiktMzXGWwMeYh6z-60">
          <mxGeometry relative="1" as="geometry" />
        </mxCell>
        <mxCell id="9TROFiktMzXGWwMeYh6z-58" value="เดินไปยังห้องเรียน" style="whiteSpace=wrap;html=1;rounded=1;fillColor=#f5f5f5;fontColor=#333333;strokeColor=#666666;" vertex="1" parent="1">
          <mxGeometry x="60" y="1030" width="120" height="60" as="geometry" />
        </mxCell>
        <mxCell id="9TROFiktMzXGWwMeYh6z-63" value="" style="edgeStyle=orthogonalEdgeStyle;rounded=0;orthogonalLoop=1;jettySize=auto;html=1;" edge="1" parent="1" source="9TROFiktMzXGWwMeYh6z-60" target="9TROFiktMzXGWwMeYh6z-62">
          <mxGeometry relative="1" as="geometry" />
        </mxCell>
        <mxCell id="9TROFiktMzXGWwMeYh6z-60" value="และถึงโรงเรียนเป็นที่เรียบร้อย จากนั้นก็ทำกิจกรรมประจำวันในโรงเรียน" style="whiteSpace=wrap;html=1;rounded=1;fillColor=#dae8fc;strokeColor=#6c8ebf;" vertex="1" parent="1">
          <mxGeometry x="260" y="1030" width="120" height="60" as="geometry" />
        </mxCell>
        <mxCell id="9TROFiktMzXGWwMeYh6z-62" value="สิ้นสุด" style="whiteSpace=wrap;html=1;rounded=1;fillColor=#ffe6cc;strokeColor=#d79b00;" vertex="1" parent="1">
          <mxGeometry x="260" y="1170" width="120" height="60" as="geometry" />
        </mxCell>
      </root>
    </mxGraphModel>
  </diagram>
</mxfile>
